# xmcd
#
# Track frame offsets:
#	150
#	18562
#	38214
#	54999
#	68604
#	89296
#	103947
#	123282
#	143219
#	154111
#	168478
#	184533
#	201838
#	214733
#	230433
#
# Disc length: 3315 seconds
#
# Revision: 1
# Processed by: cddbd v1.5.2PL0 Copyright (c) Steve Scherf et al.
# Submitted via: audiograbber 1.83.01
#
DISCID=cb0cf10f
DTITLE=Country Various - Priddis Disk 2
DYEAR=1900
DGENRE=KARAOKE
TTITLE0=Dixie Chicks - Ready To Run
TTITLE1=Twain, Shania - Any Man Of Mine
TTITLE2=Wynonna - Tell Me Why
TTITLE3=McEntire, Reba - Walk On
TTITLE4=Judds,  The - Born To Be Blue
TTITLE5=Tillis, Pam - Shake The Sugar Tree
TTITLE6=Yearwood, Trisha - She's In Love With The Boy
TTITLE7=Brooks, Garth - Friends In Low Places
TTITLE8=Strait, George - Heartland
TTITLE9=Jackson, Alan - Don't Rock The Jukebox
TTITLE10=Alabama - The Closer You Get
TTITLE11=Montgomery, John Michael - Beer And  Bones
TTITLE12=Travis, Randy - Better Class Of Loser
TTITLE13=McGraw, Tim - Where The Green Grass Grows
TTITLE14=Black, Clint - Wherever You Go
EXTD=
EXTT0=
EXTT1=
EXTT2=
EXTT3=
EXTT4=
EXTT5=
EXTT6=
EXTT7=
EXTT8=
EXTT9=
EXTT10=
EXTT11=
EXTT12=
EXTT13=
EXTT14=
PLAYORDER=
